<mxfile host="Electron" modified="2024-06-13T12:06:49.181Z" agent="Mozilla/5.0 (Windows NT 10.0; Win64; x64) AppleWebKit/537.36 (KHTML, like Gecko) draw.io/21.3.7 Chrome/112.0.5615.204 Electron/24.5.0 Safari/537.36" etag="n_FYrEcWEbE1ttQyyRQv" version="21.3.7" type="device">
  <diagram id="7CAGK7NYdxNWs-XZQOqM" name="Seite-1">
    <mxGraphModel dx="675" dy="462" grid="0" gridSize="10" guides="1" tooltips="1" connect="1" arrows="1" fold="1" page="1" pageScale="1" pageWidth="827" pageHeight="1169" math="0" shadow="0">
      <root>
        <mxCell id="0" />
        <mxCell id="1" parent="0" />
        <mxCell id="IjUauUQ_8tpXAWT-FcBq-1" value="&lt;font style=&quot;font-size: 16px;&quot;&gt;Heat Exchanger&lt;/font&gt;" style="rounded=0;whiteSpace=wrap;html=1;fontSize=16;" parent="1" vertex="1">
          <mxGeometry x="353" y="315" width="170" height="100" as="geometry" />
        </mxCell>
        <mxCell id="IjUauUQ_8tpXAWT-FcBq-3" value="" style="endArrow=classic;html=1;rounded=0;entryX=0;entryY=0.25;entryDx=0;entryDy=0;strokeWidth=2;strokeColor=#8C8CFF;fontSize=16;" parent="1" edge="1">
          <mxGeometry width="50" height="50" relative="1" as="geometry">
            <mxPoint x="353" y="390" as="sourcePoint" />
            <mxPoint x="203" y="390" as="targetPoint" />
          </mxGeometry>
        </mxCell>
        <mxCell id="IjUauUQ_8tpXAWT-FcBq-4" value="" style="endArrow=classic;html=1;rounded=0;entryX=0;entryY=0.25;entryDx=0;entryDy=0;strokeWidth=2;strokeColor=#F79494;fontSize=16;" parent="1" edge="1">
          <mxGeometry width="50" height="50" relative="1" as="geometry">
            <mxPoint x="523" y="340" as="sourcePoint" />
            <mxPoint x="673" y="340" as="targetPoint" />
          </mxGeometry>
        </mxCell>
        <mxCell id="IjUauUQ_8tpXAWT-FcBq-5" value="" style="endArrow=classic;html=1;rounded=0;entryX=0;entryY=0.25;entryDx=0;entryDy=0;strokeWidth=2;strokeColor=#050DFF;fontSize=16;" parent="1" edge="1">
          <mxGeometry width="50" height="50" relative="1" as="geometry">
            <mxPoint x="673" y="390" as="sourcePoint" />
            <mxPoint x="523" y="390" as="targetPoint" />
          </mxGeometry>
        </mxCell>
        <mxCell id="IjUauUQ_8tpXAWT-FcBq-6" value="" style="endArrow=classic;html=1;rounded=0;entryX=0;entryY=0.25;entryDx=0;entryDy=0;strokeWidth=2;fillColor=#f8cecc;strokeColor=#F70505;fontColor=#FF4A4A;fontSize=16;" parent="1" edge="1">
          <mxGeometry width="50" height="50" relative="1" as="geometry">
            <mxPoint x="203" y="340" as="sourcePoint" />
            <mxPoint x="353" y="340" as="targetPoint" />
          </mxGeometry>
        </mxCell>
        <mxCell id="IjUauUQ_8tpXAWT-FcBq-9" value="" style="endArrow=classic;html=1;rounded=0;strokeWidth=2;fillColor=#f8cecc;strokeColor=#000000;fontSize=16;" parent="1" edge="1">
          <mxGeometry width="50" height="50" relative="1" as="geometry">
            <mxPoint x="273" y="364.75" as="sourcePoint" />
            <mxPoint x="353" y="365.25" as="targetPoint" />
          </mxGeometry>
        </mxCell>
        <mxCell id="IjUauUQ_8tpXAWT-FcBq-10" value="" style="endArrow=classic;html=1;rounded=0;strokeWidth=2;fillColor=#f8cecc;strokeColor=#000000;fontSize=16;" parent="1" edge="1">
          <mxGeometry width="50" height="50" relative="1" as="geometry">
            <mxPoint x="523" y="364.75" as="sourcePoint" />
            <mxPoint x="603" y="365.25" as="targetPoint" />
          </mxGeometry>
        </mxCell>
        <mxCell id="IjUauUQ_8tpXAWT-FcBq-11" value="Q&lt;sub style=&quot;font-size: 16px;&quot;&gt;in&lt;/sub&gt;" style="text;html=1;strokeColor=none;fillColor=none;align=center;verticalAlign=middle;whiteSpace=wrap;rounded=0;fontSize=16;" parent="1" vertex="1">
          <mxGeometry x="229" y="350" width="60" height="30" as="geometry" />
        </mxCell>
        <mxCell id="IjUauUQ_8tpXAWT-FcBq-13" value="Q&lt;sub style=&quot;font-size: 16px;&quot;&gt;out&lt;/sub&gt;" style="text;html=1;strokeColor=none;fillColor=none;align=center;verticalAlign=middle;whiteSpace=wrap;rounded=0;fontSize=16;" parent="1" vertex="1">
          <mxGeometry x="596" y="352" width="60" height="30" as="geometry" />
        </mxCell>
        <mxCell id="IjUauUQ_8tpXAWT-FcBq-18" value="." style="text;html=1;strokeColor=none;fillColor=none;align=center;verticalAlign=middle;whiteSpace=wrap;rounded=0;fontSize=25;fontFamily=Georgia;" parent="1" vertex="1">
          <mxGeometry x="585" y="332" width="60" height="30" as="geometry" />
        </mxCell>
        <mxCell id="IjUauUQ_8tpXAWT-FcBq-19" value="T&lt;sub style=&quot;font-size: 16px;&quot;&gt;source,in&lt;/sub&gt;" style="text;html=1;strokeColor=none;fillColor=none;align=center;verticalAlign=middle;whiteSpace=wrap;rounded=0;fontSize=16;" parent="1" vertex="1">
          <mxGeometry x="243" y="302" width="60" height="30" as="geometry" />
        </mxCell>
        <mxCell id="IjUauUQ_8tpXAWT-FcBq-20" value="T&lt;sub style=&quot;font-size: 16px;&quot;&gt;source,out&lt;/sub&gt;" style="text;html=1;strokeColor=none;fillColor=none;align=center;verticalAlign=middle;whiteSpace=wrap;rounded=0;fontSize=16;" parent="1" vertex="1">
          <mxGeometry x="243" y="398" width="60" height="30" as="geometry" />
        </mxCell>
        <mxCell id="IjUauUQ_8tpXAWT-FcBq-21" value="T&lt;sub style=&quot;font-size: 16px;&quot;&gt;sink,out&lt;/sub&gt;" style="text;html=1;strokeColor=none;fillColor=none;align=center;verticalAlign=middle;whiteSpace=wrap;rounded=0;fontSize=16;" parent="1" vertex="1">
          <mxGeometry x="563" y="302" width="60" height="30" as="geometry" />
        </mxCell>
        <mxCell id="IjUauUQ_8tpXAWT-FcBq-22" value="T&lt;sub style=&quot;font-size: 16px;&quot;&gt;sink,in&lt;/sub&gt;" style="text;html=1;strokeColor=none;fillColor=none;align=center;verticalAlign=middle;whiteSpace=wrap;rounded=0;fontSize=16;" parent="1" vertex="1">
          <mxGeometry x="563" y="398" width="60" height="30" as="geometry" />
        </mxCell>
        <mxCell id="HxBd32XjOFAh-7Lxj5CA-1" value="." style="text;html=1;strokeColor=none;fillColor=none;align=center;verticalAlign=middle;whiteSpace=wrap;rounded=0;fontSize=25;fontFamily=Georgia;" parent="1" vertex="1">
          <mxGeometry x="222" y="328" width="61" height="33" as="geometry" />
        </mxCell>
      </root>
    </mxGraphModel>
  </diagram>
</mxfile>
